<?xml version="1.0"?>
<svg xmlns="http://www.w3.org/2000/svg" xmlns:xlink="http://www.w3.org/1999/xlink" version="1.1" id="Capa_1" x="0px" y="0px" viewBox="0 0 60 60" style="enable-background:new 0 0 60 60;" xml:space="preserve" width="512px" height="512px" class=""><g><g>
	<path d="M6.467,46.658c-0.375-0.531-1.258-0.531-1.633,0l-2.93,4.145c-1.902,2.634-1.861,5.724,0.104,7.688   C2.98,59.464,4.274,60,5.65,60s2.67-0.536,3.643-1.509c1.376-1.376,2.519-3.817,0.109-7.681L6.467,46.658z" data-original="#000000" class="active-path" data-old_color="#004fdf" fill="#004fdf"/>
	<path d="M2.793,42.293c-0.391,0.391-0.391,1.023,0,1.414C2.988,43.902,3.244,44,3.5,44s0.512-0.098,0.707-0.293l2-2   c0.391-0.391,0.391-1.023,0-1.414s-1.023-0.391-1.414,0L2.793,42.293z" data-original="#000000" class="active-path" data-old_color="#004fdf" fill="#004fdf"/>
	<path d="M1.5,39h3c0.552,0,1-0.447,1-1s-0.448-1-1-1h-3c-0.552,0-1,0.447-1,1S0.948,39,1.5,39z" data-original="#000000" class="active-path" data-old_color="#004fdf" fill="#004fdf"/>
	<path d="M59.5,29h-16v-5h-6v3h-4.483c-0.285,0-0.517-0.231-0.517-0.517V22h3v-6h-5V0h-22v16h-5v6h3v12.432   c0,0.529,0.036,1.05,0.079,1.568H11.5v-3c0-0.553,0.448-1,1-1h3v-3c0-0.553,0.448-1,1-1s1,0.447,1,1v4c0,0.553-0.448,1-1,1h-3v3   c0,0.553-0.448,1-1,1H6.852c1.669,8.536,9.199,15,18.216,15H37.5v3h6v-5h16V29z M5.5,20v-2h3h22h3v2h-1h-26H5.5z M41.5,54h-2v-1V27   v-1h2v3v22V54z" data-original="#000000" class="active-path" data-old_color="#004fdf" fill="#004fdf"/>
</g></g> </svg>
